<svg xmlns="http://www.w3.org/2000/svg" xmlns:xlink="http://www.w3.org/1999/xlink" version="1.1" width="43.90358352661133" height="43.685768127441406" viewBox="-0.3026455044746399 0.07266438007354736 43.90358352661133 43.685768127441406">
  <!-- Exported by Scratch - http://scratch.mit.edu/ -->
  <g id="ID0.7659010705538094">
    <path id="path4531" fill="#00adba" stroke="none" stroke-width="0" stroke-linejoin="miter" opacity="1" d="M 200.111 759.186 L 239.247 759.186 L 220.391 816.376 L 144.596 816.376 Z " transform="matrix(0.20261526107788086,0,0,0.20261526107788086,-29.1,-153.25)"/>
    <path id="path4533" fill="#00ffcc" stroke="none" stroke-width="0" stroke-linejoin="miter" opacity="1" d="M 305.389 759.186 L 266.253 759.186 L 285.109 816.376 L 356.345 816.376 Z " transform="matrix(0.20261526107788086,0,0,0.20261526107788086,-29.1,-153.25)"/>
    <path id="path4527" fill="#0092bc" stroke="none" stroke-width="0" stroke-linejoin="miter" opacity="1" d="M 252.301 969.860 L 144.596 816.376 L 220.418 816.376 Z " transform="matrix(0.20261526107788086,0,0,0.20261526107788086,-29.1,-153.25)"/>
    <path id="path4529" fill="#00d0e1" stroke="none" stroke-width="0" stroke-linejoin="miter" opacity="1" d="M 252.302 969.860 L 356.345 816.376 L 285.082 816.376 Z " transform="matrix(0.20261526107788086,0,0,0.20261526107788086,-29.1,-153.25)"/>
    <path id="rect4141" fill="#00e2cc" stroke="none" stroke-width="0" stroke-linejoin="miter" opacity="1" d="M 238.984 759.186 L 266.516 759.186 L 285.663 816.376 L 220.418 816.376 Z " transform="matrix(0.20261526107788086,0,0,0.20261526107788086,-29.1,-153.25)"/>
    <path id="path4144" fill="#00becc" stroke="none" stroke-width="0" stroke-linejoin="miter" opacity="1" d="M 200.111 759.186 L 239.247 759.186 L 220.391 816.376 L 170.811 816.376 Z " transform="matrix(0.20261526107788086,0,0,0.20261526107788086,-29.1,-153.25)"/>
    <path id="path4146" fill="#00f0c0" stroke="none" stroke-width="0" stroke-linejoin="miter" opacity="1" d="M 305.389 759.186 L 266.253 759.186 L 285.109 816.376 L 334.689 816.376 Z " transform="matrix(0.20261526107788086,0,0,0.20261526107788086,-29.1,-153.25)"/>
    <path id="path4148" fill="#009fcc" stroke="none" stroke-width="0" stroke-linejoin="miter" opacity="1" d="M 252.301 969.860 L 170.784 816.376 L 220.418 816.376 Z " transform="matrix(0.20261526107788086,0,0,0.20261526107788086,-29.1,-153.25)"/>
    <path id="path4151" fill="#00bccc" stroke="none" stroke-width="0" stroke-linejoin="miter" opacity="1" d="M 252.302 969.860 L 334.689 816.376 L 285.082 816.376 Z " transform="matrix(0.20261526107788086,0,0,0.20261526107788086,-29.1,-153.25)"/>
    <path id="path4153" fill="#00afcc" stroke="none" stroke-width="0" stroke-linejoin="miter" opacity="1" d="M 252.301 969.860 L 220.391 816.376 L 285.662 816.376 Z " transform="matrix(0.20261526107788086,0,0,0.20261526107788086,-29.1,-153.25)"/>
  </g>
</svg>