<svg version="1.1" xmlns="http://www.w3.org/2000/svg" xmlns:xlink="http://www.w3.org/1999/xlink" width="375.47014" height="297.49596" viewBox="0,0,375.47014,297.49596"><g transform="translate(-140.22146,-163.69474)"><g data-paper-data="{&quot;isPaintingLayer&quot;:true}" fill="#000000" fill-rule="nonzero" stroke-linejoin="miter" stroke-miterlimit="10" stroke-dasharray="" stroke-dashoffset="0" style="mix-blend-mode: normal"><g data-paper-data="{&quot;origRot&quot;:0,&quot;index&quot;:null}" stroke="#000000"><path d="M316.16148,371.68l-3.00708,-206.81022l27.04085,-0.54673l3.00708,206.81022z" data-paper-data="{&quot;origPos&quot;:null}" stroke-width="0" stroke-linecap="butt"/><path d="M340.38495,164.20633c0,0 -5.45288,43.44821 -12.95646,43.59993c-7.50356,0.15171 -14.21638,-43.05052 -14.21638,-43.05052z" data-paper-data="{&quot;origPos&quot;:null}" stroke-width="1" stroke-linecap="butt"/><path d="M335.28974,300.86909l-1.18117,-81.23477" data-paper-data="{&quot;origPos&quot;:null}" stroke-width="2.5" stroke-linecap="round"/><path d="M321.9057,328.22593l-1.18117,-81.23478" data-paper-data="{&quot;origPos&quot;:null}" stroke-width="2.5" stroke-linecap="round"/><path d="M329.10955,349.74923l-1.18117,-81.23478" data-paper-data="{&quot;origPos&quot;:null}" stroke-width="2.5" stroke-linecap="round"/></g><path d="M483.10248,384.53143v-121.00001h30.43059v121.00001z" stroke="#000000" stroke-width="0" stroke-linecap="butt"/><path d="M483.15848,263.53157v-14h30.26126v14z" stroke="#000000" stroke-width="0" stroke-linecap="butt"/><path d="M483.15848,249.53157v-14h30.26126v14z" stroke="#000000" stroke-width="0" stroke-linecap="butt"/><path d="M483.15848,235.53155v-14h30.26126v14z" stroke="#000000" stroke-width="0" stroke-linecap="butt"/><path d="M481.15707,389.35883v-169.66967h34.53453v169.66967z" stroke="none" stroke-width="NaN" stroke-linecap="butt"/><path d="M140.22146,461.1907v-181.68168h30.03003v181.68168z" stroke="none" stroke-width="NaN" stroke-linecap="butt"/></g></g></svg>