<svg version="1.1" xmlns="http://www.w3.org/2000/svg" xmlns:xlink="http://www.w3.org/1999/xlink" width="363.70333" height="257.21917" viewBox="0,0,363.70333,257.21917"><g transform="translate(20.2196,-122.96472)"><g data-paper-data="{&quot;isPaintingLayer&quot;:true}" fill="#000000" fill-rule="nonzero" stroke-linejoin="miter" stroke-miterlimit="10" stroke-dasharray="" stroke-dashoffset="0" style="mix-blend-mode: normal"><path d="M-20.00001,380.18389v-57.7153h356.98531v57.7153z" stroke="#000000" stroke-width="0" stroke-linecap="butt"/><path d="M-20.00001,324.14149v-11.71035h356.98531v11.71035z" stroke="#000000" stroke-width="0" stroke-linecap="butt"/><path d="M-20.00001,312.43114v-11.71035h356.98531v11.71035z" stroke="#000000" stroke-width="0" stroke-linecap="butt"/><path d="M-20.00001,300.72078v-11.71035h356.98531v11.71035z" stroke="#000000" stroke-width="0" stroke-linecap="butt"/><path d="M158.03514,295.70204v28.43942" stroke="#000000" stroke-width="15" stroke-linecap="round"/><path d="M169.83405,297.37494v16.72907" stroke="#000000" stroke-width="15" stroke-linecap="round"/><path d="M181.63296,327.48726v-30.11232" stroke="#000000" stroke-width="15" stroke-linecap="round"/><path d="M245.54373,313.26756v-15.89261" stroke="#000000" stroke-width="15" stroke-linecap="round"/><path d="M258.32588,296.53848v10.03744" stroke="#000000" stroke-width="15" stroke-linecap="round"/><path d="M269.14155,338.36117v-42.65913" stroke="#000000" stroke-width="15" stroke-linecap="round"/><path d="M45.9455,354.3932c0,11.01006 -11.44552,19.93547 -25.56431,19.93547c-14.11878,0 -25.56431,-8.92541 -25.56431,-19.93547c0,-11.01006 11.44552,-19.93547 25.56431,-19.93547c14.11878,0 25.56431,8.92541 25.56431,19.93547z" stroke="#000000" stroke-width="0" stroke-linecap="butt"/><path d="M60.69413,354.3932c0,11.01006 -11.44552,19.93548 -25.56431,19.93548c-14.11878,0 -25.56431,-8.92542 -25.56431,-19.93548c0,-11.01006 11.44552,-19.93547 25.56431,-19.93547c14.11878,0 25.56431,8.92541 25.56431,19.93547z" stroke="#000000" stroke-width="0" stroke-linecap="butt"/><path d="M280.94046,295.70204v27.60297" stroke="#000000" stroke-width="15" stroke-linecap="round"/><path d="M206.21403,356.76314c0,7.85333 -7.92383,14.21971 -17.69837,14.21971c-9.77454,0 -17.69837,-6.36638 -17.69837,-14.21971c0,-7.85333 7.92383,-14.21971 17.69837,-14.21971c9.77454,0 17.69837,6.36638 17.69837,14.21971z" stroke="#000000" stroke-width="0" stroke-linecap="butt"/><path d="M333.05231,358.43605c0,10.16313 -11.88574,18.40198 -26.54755,18.40198c-14.66181,0 -26.54754,-8.23885 -26.54754,-18.40198c0,-10.16313 11.88573,-18.40198 26.54754,-18.40198c14.66181,0 26.54755,8.23885 26.54755,18.40198z" stroke="#000000" stroke-width="0" stroke-linecap="butt"/><path d="M29.23037,333.34245v-34.2946" stroke="#000000" stroke-width="15" stroke-linecap="round"/><path d="M40.04604,347.56216v-46.8414" stroke="#000000" stroke-width="15" stroke-linecap="round"/><path d="M48.89522,300.72076v19.23843" stroke="#000000" stroke-width="15" stroke-linecap="round"/><path d="M-19.2196,376.68237v-86.6596h361.70333v86.6596z" stroke="#000000" stroke-width="2" stroke-linecap="butt"/><text transform="translate(24.53453,144.71472) scale(0.5,0.5)" font-size="40" xml:space="preserve" fill="#000000" fill-rule="nonzero" stroke="none" stroke-width="1" stroke-linecap="butt" stroke-linejoin="miter" stroke-miterlimit="10" stroke-dasharray="" stroke-dashoffset="0" font-family="Sans Serif" font-weight="normal" text-anchor="start" style="mix-blend-mode: normal"><tspan x="0" dy="0">Welcome to Colorless, A Scrolling</tspan><tspan x="0" dy="46.15px">Platformer. </tspan></text></g></g></svg>