<svg version="1.1" xmlns="http://www.w3.org/2000/svg" xmlns:xlink="http://www.w3.org/1999/xlink" width="363.70333" height="91.98185" viewBox="0,0,363.70333,91.98185"><g transform="translate(20.21959,-288.20203)"><g data-paper-data="{&quot;isPaintingLayer&quot;:true}" fill="#000000" fill-rule="nonzero" stroke="#000000" stroke-linejoin="miter" stroke-miterlimit="10" stroke-dasharray="" stroke-dashoffset="0" style="mix-blend-mode: normal"><path d="M-20,380.18388v-57.7153h356.98531v57.7153z" stroke-width="0" stroke-linecap="butt"/><path d="M-20,324.14148v-11.71035h356.98531v11.71035z" stroke-width="0" stroke-linecap="butt"/><path d="M-20,312.43113v-11.71035h356.98531v11.71035z" stroke-width="0" stroke-linecap="butt"/><path d="M-20,300.72078v-11.71035h356.98531v11.71035z" stroke-width="0" stroke-linecap="butt"/><path d="M158.03514,295.70203v28.43942" stroke-width="15" stroke-linecap="round"/><path d="M169.83405,297.37493v16.72907" stroke-width="15" stroke-linecap="round"/><path d="M181.63296,327.48725v-30.11232" stroke-width="15" stroke-linecap="round"/><path d="M245.54373,313.26755v-15.89261" stroke-width="15" stroke-linecap="round"/><path d="M258.32588,296.53848v10.03744" stroke-width="15" stroke-linecap="round"/><path d="M269.14155,338.36116v-42.65913" stroke-width="15" stroke-linecap="round"/><path d="M45.9455,354.39319c0,11.01006 -11.44552,19.93547 -25.56431,19.93547c-14.11878,0 -25.56431,-8.92541 -25.56431,-19.93547c0,-11.01006 11.44552,-19.93547 25.56431,-19.93547c14.11878,0 25.56431,8.92541 25.56431,19.93547z" stroke-width="0" stroke-linecap="butt"/><path d="M60.69413,354.39319c0,11.01006 -11.44552,19.93548 -25.56431,19.93548c-14.11878,0 -25.56431,-8.92542 -25.56431,-19.93548c0,-11.01006 11.44552,-19.93547 25.56431,-19.93547c14.11878,0 25.56431,8.92541 25.56431,19.93547z" stroke-width="0" stroke-linecap="butt"/><path d="M280.94046,295.70203v27.60297" stroke-width="15" stroke-linecap="round"/><path d="M206.21403,356.76313c0,7.85333 -7.92383,14.21971 -17.69837,14.21971c-9.77454,0 -17.69837,-6.36638 -17.69837,-14.21971c0,-7.85333 7.92383,-14.21971 17.69837,-14.21971c9.77454,0 17.69837,6.36638 17.69837,14.21971z" stroke-width="0" stroke-linecap="butt"/><path d="M333.05231,358.43604c0,10.16313 -11.88574,18.40198 -26.54755,18.40198c-14.66181,0 -26.54754,-8.23885 -26.54754,-18.40198c0,-10.16313 11.88573,-18.40198 26.54754,-18.40198c14.66181,0 26.54755,8.23885 26.54755,18.40198z" stroke-width="0" stroke-linecap="butt"/><path d="M29.23037,333.34244v-34.2946" stroke-width="15" stroke-linecap="round"/><path d="M40.04604,347.56215v-46.8414" stroke-width="15" stroke-linecap="round"/><path d="M48.89522,300.72075v19.23843" stroke-width="15" stroke-linecap="round"/><path d="M-19.21959,376.68236v-86.6596h361.70333v86.6596z" stroke-width="2" stroke-linecap="butt"/></g></g></svg>