<svg version="1.1" xmlns="http://www.w3.org/2000/svg" xmlns:xlink="http://www.w3.org/1999/xlink" width="403.8919" height="177.12613" viewBox="0,0,403.8919,177.12613"><g transform="translate(-97.7847,-244.21468)"><g data-paper-data="{&quot;isPaintingLayer&quot;:true}" fill="#000000" fill-rule="nonzero" stroke="#000000" stroke-linejoin="miter" stroke-miterlimit="10" stroke-dasharray="" stroke-dashoffset="0" style="mix-blend-mode: normal"><path d="M100,408.01049v-69h41.06944v69z" stroke-width="0" stroke-linecap="butt"/><path d="M100,341.01045v-14h41.06944v14z" stroke-width="0" stroke-linecap="butt"/><path d="M100,327.01045v-14h41.06944v14z" stroke-width="0" stroke-linecap="butt"/><path d="M100,313.01045v-14h41.06944v14z" stroke-width="0" stroke-linecap="butt"/><path d="M275,359.01049v-69h205.06944v69z" data-paper-data="{&quot;origPos&quot;:null}" stroke-width="0" stroke-linecap="butt"/><path d="M275,292.01045v-14h206.06944v14z" data-paper-data="{&quot;origPos&quot;:null}" stroke-width="0" stroke-linecap="butt"/><path d="M275,278.01045v-14h206.06944v14z" data-paper-data="{&quot;origPos&quot;:null}" stroke-width="0" stroke-linecap="butt"/><path d="M275,264.01045v-14h206.06944v14z" data-paper-data="{&quot;origPos&quot;:null}" stroke-width="0" stroke-linecap="butt"/><path d="M131.06941,345.01039v-36" stroke-width="15" stroke-linecap="round"/><path d="M120.06941,324.01039v-18" stroke-width="15" stroke-linecap="round"/><path d="M325.06941,284.01039v-23h7" stroke-width="15" stroke-linecap="round"/><path d="M338.06941,259.01039v16" stroke-width="15" stroke-linecap="round"/><path d="M350.06941,314.01039v-55" stroke-width="15" stroke-linecap="round"/><path d="M405.06941,260.01039v34" stroke-width="15" stroke-linecap="round"/><path d="M418.06941,260.01039v10" stroke-width="15" stroke-linecap="round"/><path d="M429.06941,260.01039v15" stroke-width="15" stroke-linecap="round"/><path d="M471.06941,288.01039v-28" stroke-width="15" stroke-linecap="round"/><path d="M135.06941,366.01037c0,6.62742 -6.49187,12 -14.5,12c-8.00813,0 -14.5,-5.37258 -14.5,-12c0,-6.62742 6.49187,-12 14.5,-12c8.00813,0 14.5,5.37258 14.5,12z" stroke-width="0" stroke-linecap="butt"/><path d="M446.06941,320.5104c0,9.1127 -8.05887,16.5 -18,16.5c-9.94113,0 -18,-7.3873 -18,-16.5c0,-9.1127 8.05887,-16.5 18,-16.5c9.94113,0 18,7.3873 18,16.5z" data-paper-data="{&quot;origPos&quot;:null}" stroke-width="0" stroke-linecap="butt"/><path d="M98.7847,420.34081v-120.12012h39.03904v120.12012z" stroke-width="2" stroke-linecap="butt"/><path d="M273.94987,390.86033v-145.64565h226.72673v145.64565z" stroke-width="2" stroke-linecap="butt"/></g></g></svg>