<svg version="1.1" xmlns="http://www.w3.org/2000/svg" xmlns:xlink="http://www.w3.org/1999/xlink" width="979.89023" height="1516.2318" viewBox="0,0,979.89023,1516.2318"><defs><linearGradient x1="356.67009" y1="148.88531" x2="356.67009" y2="176.6815" gradientUnits="userSpaceOnUse" id="color-1"><stop offset="0" stop-color="#3699ff"/><stop offset="1" stop-color="#1086ff"/></linearGradient><linearGradient x1="356.67009" y1="148.88531" x2="356.67009" y2="176.6815" gradientUnits="userSpaceOnUse" id="color-2"><stop offset="0" stop-color="#68b2ff"/><stop offset="1" stop-color="#1086ff"/></linearGradient></defs><g transform="translate(93.83543,1119.24527)"><g data-paper-data="{&quot;isPaintingLayer&quot;:true}" stroke-linejoin="miter" stroke-miterlimit="10" stroke-dasharray="" stroke-dashoffset="0" style="mix-blend-mode: normal"><path d="M83.8626,276.18153v-1395.4268h802.19219v1395.4268z" fill="#cbfeff" fill-rule="nonzero" stroke="none" stroke-width="NaN" stroke-linecap="butt"/><text transform="translate(-93.5529,-96.28084) scale(0.56507,0.56507)" font-size="40" xml:space="preserve" fill="#000000" fill-rule="nonzero" stroke="none" stroke-width="1" stroke-linecap="butt" stroke-linejoin="miter" stroke-miterlimit="10" stroke-dasharray="" stroke-dashoffset="0" font-family="Sans Serif" font-weight="normal" text-anchor="start" style="mix-blend-mode: normal"><tspan x="0" dy="0">BLIND JUMP</tspan></text><path d="M86.86403,396.98653v-71.65796h594.00673v71.65796z" fill="#251300" fill-rule="nonzero" stroke="none" stroke-width="0" stroke-linecap="butt"/><path d="M85.60058,327.83662v-47.14339h594.00673v47.14339z" fill="#118100" fill-rule="nonzero" stroke="none" stroke-width="0" stroke-linecap="butt"/><path d="M84.33714,303.94434v-39.60045h594.00673v39.60045z" fill="#22ff00" fill-rule="nonzero" stroke="none" stroke-width="0" stroke-linecap="butt"/><text transform="translate(264.48481,134.79731) scale(0.92296,0.92296)" font-size="40" xml:space="preserve" fill="#000000" fill-rule="nonzero" stroke="none" stroke-width="1" stroke-linecap="butt" stroke-linejoin="miter" stroke-miterlimit="10" stroke-dasharray="" stroke-dashoffset="0" font-family="Sans Serif" font-weight="normal" text-anchor="start" style="mix-blend-mode: normal"><tspan x="0" dy="0">GG!</tspan></text><text transform="translate(180.40073,213.25078) scale(0.63014,0.63014)" font-size="40" xml:space="preserve" fill="#000000" fill-rule="nonzero" stroke="none" stroke-width="1" stroke-linecap="butt" stroke-linejoin="miter" stroke-miterlimit="10" stroke-dasharray="" stroke-dashoffset="0" font-family="Sans Serif" font-weight="normal" text-anchor="start" style="mix-blend-mode: normal"><tspan x="0" dy="0">HOPE YOU ENJOYED!</tspan></text><path d="M332.1629,149.35359h51.1997c3.11323,0 5.61957,2.50635 5.61957,5.61944v16.54635c0,3.11323 -2.50635,5.61944 -5.61957,5.61944h-51.1997c-3.11323,0 -5.61957,-2.50621 -5.61957,-5.61944v-16.54635c0,-3.11309 2.50635,-5.61944 5.61957,-5.61944z" fill="url(#color-1)" fill-rule="nonzero" stroke="#4765ff" stroke-width="2" stroke-linecap="round"/><path d="M340.69447,161.63643c0,1.12692 -0.78354,2.07101 -1.83516,2.31787c1.25378,0.16873 2.356,0.81281 3.12061,1.74495c-0.73737,0.59078 -1.2484,1.45284 -1.38439,2.43426h-7.22707c0.29881,-2.22069 2.089,-3.96618 4.3305,-4.19666c-1.01658,-0.2713 -1.76535,-1.19833 -1.76535,-2.30042c0,-1.31485 1.06409,-2.37895 2.37895,-2.37895c1.31486,0 2.38191,1.0641 2.38191,2.37895zM346.76697,163.10511c0,0.87482 -0.60876,1.60574 -1.42506,1.7973c1.68481,0.22672 3.019,1.56105 3.24559,3.24559h-7.5091c0.23183,-1.72374 1.62199,-3.07833 3.36184,-3.25727c-0.78904,-0.21049 -1.36976,-0.93013 -1.36976,-1.78562c0,-1.0206 0.8261,-1.84671 1.84683,-1.84671c1.0206,0 1.84965,0.8261 1.84965,1.84671z" fill="#ffffff" fill-rule="nonzero" stroke="none" stroke-width="2" stroke-linecap="butt"/><path d="M357.90611,160.15135v0.86409h-3.96416v2.26525h3.43151v0.85993h-3.43151v3.32237h-0.96476v-7.31163zM365.61643,160.15135v7.31163h-0.89778v-7.31163zM367.89431,160.15135v7.31163h-0.89778v-7.31163zM362.99035,162.76468c0.46218,0.47722 0.69213,1.13457 0.69226,1.97584c-0.00014,0.68166 -0.10175,1.22022 -0.30633,1.61085c-0.20445,0.39063 -0.50286,0.68999 -0.89348,0.9061c-0.39063,0.21612 -0.81724,0.32727 -1.27942,0.32727c-0.74153,0 -1.33821,-0.23773 -1.79542,-0.7132c-0.45721,-0.47547 -0.68797,-1.16115 -0.68797,-2.05544c0,-0.98087 0.27263,-1.70925 0.81804,-2.18135c0.45547,-0.39237 1.01027,-0.58729 1.66535,-0.58729c0.72811,0 1.32479,0.24015 1.78697,0.71723zM373.22594,162.76468c0.46218,0.47722 0.69212,1.13457 0.69226,1.97584c-0.00014,0.68166 -0.10175,1.22022 -0.30633,1.61085c-0.20445,0.39063 -0.50286,0.68999 -0.89349,0.9061c-0.39063,0.21612 -0.81723,0.32727 -1.27941,0.32727c-0.74153,0 -1.3425,-0.23773 -1.79958,-0.7132c-0.45721,-0.47547 -0.68381,-1.16115 -0.68381,-2.05544c0,-0.98087 0.27264,-1.70925 0.81804,-2.18135c0.45547,-0.39237 1.01027,-0.58729 1.66535,-0.58729c0.72811,0 1.32479,0.24015 1.78697,0.71723zM375.26057,162.16907l0.84314,3.0539l0.31466,1.13685c0.01329,-0.05665 0.10296,-0.41909 0.27263,-1.09068l0.84315,-3.10008h0.92288l0.7928,3.07068l0.26431,1.01094l0.30203,-1.0194l0.91026,-3.06222h0.87254l-1.65689,5.29391h-0.93134l-0.84314,-3.17135l-0.20552,-0.90181l-1.07389,4.07316h-0.9355l-1.6193,-5.29391zM360.08746,163.29331c-0.29586,0.33572 -0.44459,0.84448 -0.44459,1.52278c0,0.67817 0.14873,1.18518 0.44459,1.52265c0.296,0.33747 0.66702,0.50769 1.11591,0.50769c0.44554,0 0.81576,-0.16846 1.11162,-0.50769c0.29586,-0.33909 0.44459,-0.8571 0.44473,-1.55205c-0.00014,-0.65508 -0.14713,-1.15176 -0.44473,-1.48923c-0.2976,-0.33747 -0.66944,-0.50755 -1.11162,-0.50755c-0.44889,0 -0.81991,0.16753 -1.11591,0.50339zM370.32305,163.29331c-0.29586,0.33572 -0.44459,0.84448 -0.44459,1.52278c0,0.67817 0.14873,1.18518 0.44459,1.52265c0.296,0.33747 0.66702,0.50769 1.11591,0.50769c0.44554,0 0.81563,-0.16846 1.11162,-0.50769c0.29586,-0.33909 0.44459,-0.8571 0.44473,-1.55205c-0.00014,-0.65508 -0.14713,-1.15176 -0.44473,-1.48923c-0.2976,-0.33747 -0.66944,-0.50755 -1.11162,-0.50755c-0.44889,0 -0.81992,0.16753 -1.11591,0.50339z" fill="#ffffff" fill-rule="nonzero" stroke="none" stroke-width="2" stroke-linecap="butt"/><path d="M383.65993,149.643c2.73777,0 4.94342,2.21049 4.94342,4.9543c0,0.26176 -0.02416,0.51695 -0.06282,0.76757c-0.10055,-2.65347 -2.26177,-4.75696 -4.93497,-4.75696h-51.9031c-2.4752,0 -4.51225,1.80428 -4.88059,4.17813c-0.00241,-0.06269 -0.00417,-0.12552 -0.00417,-0.18874c0,-2.74381 2.20135,-4.9543 4.93912,-4.9543z" fill="url(#color-2)" fill-rule="nonzero" stroke="none" stroke-width="2" stroke-linecap="butt"/><path d="M331.15511,176.16196c0.7571,0.41439 1.62588,0.65024 2.55467,0.65024h51.19889c0.92879,0 1.79825,-0.23585 2.5548,-0.65024h1.12423c-1.01135,0.79965 -2.28713,1.27942 -3.67904,1.27942h-51.19889c-1.39177,0 -2.66769,-0.47976 -3.6789,-1.27942z" fill="#284bff" fill-rule="nonzero" stroke="none" stroke-width="2" stroke-linecap="butt"/><text transform="translate(213.43376,172.1732) scale(0.80073,0.80073)" font-size="40" xml:space="preserve" fill="#000000" fill-rule="nonzero" stroke="none" stroke-width="1" stroke-linecap="butt" stroke-linejoin="miter" stroke-miterlimit="10" stroke-dasharray="" stroke-dashoffset="0" font-family="Sans Serif" font-weight="normal" text-anchor="start" style="mix-blend-mode: normal"><tspan x="0" dy="0">⭐</tspan></text><g fill="#000000" stroke="none" stroke-width="1" stroke-linecap="butt"><path d="M288.07984,155.14412c1.18203,-2.64345 3.69653,-4.49172 6.61937,-4.49172c4.04039,0 7.3071,3.50311 7.3071,7.8014c0,8.48913 -8.59659,11.1111 -13.92647,19.72917c-5.65226,-8.66107 -13.92647,-10.96066 -13.92647,-19.72917c0,-4.29829 3.26671,-7.8014 7.3071,-7.8014c2.92284,0 5.43734,1.84827 6.61937,4.49172z" fill-rule="evenodd"/><path d="M288.07984,179.79484c-0.53728,0 -1.05308,-0.27939 -1.35396,-0.73071c-2.06318,-3.15924 -4.0404,-5.41585 -6.36148,-7.58649c-3.80399,-3.56759 -7.8229,-6.92026 -7.8229,-13.02384c0,-5.20093 3.99742,-9.41326 8.91897,-9.41326c2.55748,0 4.94304,1.16054 6.61937,3.11626c1.67633,-1.93424 4.06189,-3.11626 6.61937,-3.11626c4.92154,0 8.91896,4.23382 8.91896,9.41326c0,5.84568 -3.56758,9.21984 -7.35008,12.78743c-2.38556,2.25661 -4.83559,4.57768 -6.8128,7.77991c-0.30088,0.47281 -0.81667,0.75221 -1.37545,0.7737zM281.46047,152.26426c-3.13776,0 -5.69524,2.7724 -5.69524,6.18954c0,4.70664 2.66494,7.19965 6.38297,10.65977c1.89125,1.7623 3.97592,3.71803 5.91016,6.23253c1.91274,-2.57897 4.06188,-4.62067 5.99612,-6.44744c3.54609,-3.35267 6.33999,-5.99612 6.33999,-10.44486c0,-3.41715 -2.55748,-6.18954 -5.69524,-6.18954c-2.17064,0 -4.19083,1.39695 -5.13646,3.54609c-0.2579,0.58027 -0.83817,0.96712 -1.48291,0.96712c-0.64475,0 -1.22501,-0.38684 -1.48291,-0.96712c-0.94563,-2.14915 -2.96582,-3.54609 -5.13646,-3.54609z" fill-rule="nonzero"/></g><path d="M301.72693,158.2174c0,5.52331 -3.37416,8.72554 -6.94175,12.0997c-2.23512,2.10617 -4.53469,4.2983 -6.40445,7.3071c-0.30088,0.45132 -0.79519,0.7522 -1.35397,0.7522h-0.02149c-0.53728,0 -1.05309,-0.27939 -1.35397,-0.73071c-1.91274,-2.96582 -4.16934,-5.07199 -6.36147,-7.11368c-3.58907,-3.35267 -6.98473,-6.53341 -6.98473,-12.31462c0,-4.94304 3.804,-8.96195 8.48914,-8.96195c2.40704,0 4.64215,1.07458 6.23252,2.87986c1.59037,-1.80528 3.84697,-2.87986 6.23253,-2.87986c4.68514,0 8.48913,4.01891 8.46764,8.96195z" fill="#ff0000" fill-rule="evenodd" stroke="none" stroke-width="1" stroke-linecap="butt"/><g fill="#ffffff" fill-rule="nonzero" stroke="none" stroke-width="1" stroke-linecap="butt"><path d="M138.6021,58.42793c5.38,0 10.255,2.017 13.785,5.275c3.53,3.259 5.715,7.759 5.715,12.725c0,4.966 -2.185,9.466 -5.715,12.725c-3.53,3.258 -8.405,5.275 -13.785,5.275c-5.38,0 -10.255,-2.017 -13.785,-5.275c-3.53,-3.259 -5.715,-7.759 -5.715,-12.725c0,-4.966 2.185,-9.466 5.715,-12.725c3.53,-3.258 8.405,-5.275 13.785,-5.275z"/><path d="M175.1021,46.42793c5.794,0 11.044,1.793 14.845,4.689c3.802,2.897 6.155,6.897 6.155,11.311c0,4.414 -2.353,8.414 -6.155,11.311c-3.801,2.896 -9.051,4.689 -14.845,4.689c-5.794,0 -11.044,-1.793 -14.845,-4.689c-3.802,-2.897 -6.155,-6.897 -6.155,-11.311c0,-4.414 2.353,-8.414 6.155,-11.311c3.801,-2.896 9.051,-4.689 14.845,-4.689z"/><path d="M196.1021,68.42793c5.242,0 9.992,2.017 13.431,5.275c3.44,3.259 5.569,7.759 5.569,12.725c0,4.966 -2.129,9.466 -5.569,12.725c-3.439,3.258 -8.189,5.275 -13.431,5.275c-5.242,0 -9.992,-2.017 -13.431,-5.275c-3.44,-3.259 -5.569,-7.759 -5.569,-12.725c0,-4.966 2.129,-9.466 5.569,-12.725c3.439,-3.258 8.189,-5.275 13.431,-5.275z"/><path d="M164.1021,69.42793c6.346,0 12.096,2.297 16.259,6.008c4.164,3.711 6.741,8.836 6.741,14.492c0,5.656 -2.577,10.781 -6.741,14.492c-4.163,3.711 -9.913,6.008 -16.259,6.008c-6.346,0 -12.096,-2.297 -16.259,-6.008c-4.164,-3.711 -6.741,-8.836 -6.741,-14.492c0,-5.656 2.577,-10.781 6.741,-14.492c4.163,-3.711 9.913,-6.008 16.259,-6.008z"/><path d="M133.6021,78.42793c5.656,0 10.781,1.793 14.492,4.689c3.711,2.897 6.008,6.897 6.008,11.311c0,4.414 -2.297,8.414 -6.008,11.311c-3.711,2.896 -8.836,4.689 -14.492,4.689c-5.656,0 -10.781,-1.793 -14.492,-4.689c-3.711,-2.897 -6.008,-6.897 -6.008,-11.311c0,-4.414 2.297,-8.414 6.008,-11.311c3.711,-2.896 8.836,-4.689 14.492,-4.689z"/></g><g fill="#ffffff" fill-rule="nonzero" stroke="none" stroke-width="1" stroke-linecap="butt"><path d="M239.73339,30.67643c3.4867,0 6.64612,1.30719 8.93386,3.41865c2.28774,2.11211 3.70381,5.0285 3.70381,8.24689c0,3.21839 -1.41607,6.13478 -3.70381,8.24689c-2.28774,2.11146 -5.44716,3.41865 -8.93386,3.41865c-3.4867,0 -6.64612,-1.30719 -8.93386,-3.41865c-2.28774,-2.11211 -3.70381,-5.0285 -3.70381,-8.24689c0,-3.21839 1.41607,-6.13478 3.70381,-8.24689c2.28774,-2.11146 5.44716,-3.41865 8.93386,-3.41865z"/><path d="M263.38851,22.8994c3.75501,0 7.15746,1.16202 9.62083,3.03887c2.46402,1.8775 3.98897,4.46985 3.98897,7.3305c0,2.86065 -1.52495,5.45299 -3.98897,7.3305c-2.46337,1.87686 -5.86582,3.03887 -9.62083,3.03887c-3.75501,0 -7.15746,-1.16202 -9.62083,-3.03887c-2.46402,-1.8775 -3.98897,-4.46985 -3.98897,-7.3305c0,-2.86065 1.52495,-5.45299 3.98897,-7.3305c2.46337,-1.87686 5.86582,-3.03887 9.62083,-3.03887z"/><path d="M276.99831,37.15728c3.39726,0 6.47567,1.30719 8.70444,3.41865c2.22941,2.11211 3.60919,5.0285 3.60919,8.24689c0,3.21839 -1.37977,6.13478 -3.60919,8.24689c-2.22877,2.11146 -5.30717,3.41865 -8.70444,3.41865c-3.39726,0 -6.47567,-1.30719 -8.70444,-3.41865c-2.22941,-2.11211 -3.60919,-5.0285 -3.60919,-8.24689c0,-3.21839 1.37977,-6.13478 3.60919,-8.24689c2.22877,-2.11146 5.30717,-3.41865 8.70444,-3.41865z"/><path d="M256.25957,37.80537c4.11275,0 7.83924,1.48865 10.53722,3.8937c2.69863,2.40505 4.36874,5.72648 4.36874,9.39206c0,3.66557 -1.67012,6.98701 -4.36874,9.39206c-2.69798,2.40505 -6.42447,3.8937 -10.53722,3.8937c-4.11275,0 -7.83924,-1.48865 -10.53722,-3.8937c-2.69863,-2.40505 -4.36874,-5.72648 -4.36874,-9.39206c0,-3.66557 1.67012,-6.98701 4.36874,-9.39206c2.69798,-2.40505 6.42447,-3.8937 10.53722,-3.8937z"/><path d="M236.49296,43.63814c3.66557,0 6.98701,1.16202 9.39206,3.03887c2.40505,1.8775 3.8937,4.46985 3.8937,7.3305c0,2.86065 -1.48865,5.45299 -3.8937,7.3305c-2.40505,1.87686 -5.72648,3.03887 -9.39206,3.03887c-3.66557,0 -6.98701,-1.16202 -9.39206,-3.03887c-2.40505,-1.8775 -3.8937,-4.46985 -3.8937,-7.3305c0,-2.86065 1.48865,-5.45299 3.8937,-7.3305c2.40505,-1.87686 5.72648,-3.03887 9.39206,-3.03887z"/></g><g fill="#ffffff" fill-rule="nonzero" stroke="none" stroke-width="1" stroke-linecap="butt"><path d="M414.40306,112.25301c3.4867,0 6.64611,1.30719 8.93385,3.41865c2.28774,2.11211 3.70381,5.02849 3.70381,8.24689c0,3.2184 -1.41607,6.13478 -3.70381,8.24689c-2.28774,2.11147 -5.44716,3.41865 -8.93385,3.41865c-3.4867,0 -6.64612,-1.30719 -8.93386,-3.41865c-2.28774,-2.11211 -3.70381,-5.02849 -3.70381,-8.24689c0,-3.21839 1.41607,-6.13478 3.70381,-8.24689c2.28774,-2.11147 5.44716,-3.41865 8.93386,-3.41865z"/><path d="M438.05818,104.47598c3.75501,0 7.15746,1.16202 9.62083,3.03887c2.46402,1.87751 3.98897,4.46985 3.98897,7.3305c0,2.86065 -1.52495,5.45299 -3.98897,7.33049c-2.46337,1.87686 -5.86582,3.03888 -9.62083,3.03888c-3.75501,0 -7.15745,-1.16202 -9.62083,-3.03888c-2.46402,-1.8775 -3.98897,-4.46984 -3.98897,-7.33049c0,-2.86065 1.52495,-5.45299 3.98897,-7.3305c2.46337,-1.87685 5.86582,-3.03887 9.62083,-3.03887z"/><path d="M451.66798,118.73386c3.39727,0 6.47567,1.30718 8.70443,3.41865c2.22942,2.11211 3.60919,5.02849 3.60919,8.24689c0,3.2184 -1.37977,6.13478 -3.60919,8.24689c-2.22877,2.11147 -5.30717,3.41865 -8.70443,3.41865c-3.39727,0 -6.47567,-1.30718 -8.70444,-3.41865c-2.22942,-2.11211 -3.60919,-5.02849 -3.60919,-8.24689c0,-3.21839 1.37977,-6.13478 3.60919,-8.24689c2.22877,-2.11147 5.30717,-3.41865 8.70444,-3.41865z"/><path d="M430.92924,119.38195c4.11275,0 7.83925,1.48865 10.53722,3.8937c2.69863,2.40505 4.36875,5.72648 4.36875,9.39205c0,3.66557 -1.67012,6.98701 -4.36875,9.39206c-2.69798,2.40505 -6.42447,3.8937 -10.53722,3.8937c-4.11275,0 -7.83925,-1.48865 -10.53722,-3.8937c-2.69863,-2.40505 -4.36875,-5.72649 -4.36875,-9.39206c0,-3.66557 1.67012,-6.98701 4.36875,-9.39205c2.69798,-2.40505 6.42447,-3.8937 10.53722,-3.8937z"/><path d="M411.16263,125.21472c3.66557,0 6.98701,1.16202 9.39206,3.03887c2.40504,1.8775 3.8937,4.46985 3.8937,7.3305c0,2.86065 -1.48865,5.45299 -3.8937,7.3305c-2.40504,1.87685 -5.72649,3.03887 -9.39206,3.03887c-3.66557,0 -6.98701,-1.16202 -9.39205,-3.03887c-2.40504,-1.87751 -3.8937,-4.46985 -3.8937,-7.3305c0,-2.86065 1.48866,-5.45299 3.8937,-7.3305c2.40505,-1.87686 5.72648,-3.03887 9.39205,-3.03887z"/></g></g></g></svg>