<svg version="1.1" xmlns="http://www.w3.org/2000/svg" xmlns:xlink="http://www.w3.org/1999/xlink" width="390.86187" height="466.89167" viewBox="0,0,390.86187,466.89167"><g transform="translate(-65.57657,-59.19542)"><g data-paper-data="{&quot;isPaintingLayer&quot;:true}" fill-rule="nonzero" stroke-linecap="butt" stroke-linejoin="miter" stroke-miterlimit="10" stroke-dasharray="" stroke-dashoffset="0" style="mix-blend-mode: normal"><path d="M66.57657,402.97297v-157.65766h52.55255v157.65766z" fill="#000000" stroke="#000000" stroke-width="2"/><path d="M241.76576,406.46547v-232.73274h52.55256v232.73274z" fill="#000000" stroke="#000000" stroke-width="2"/><path d="M402.88589,525.08709v-232.73273h52.55256v232.73273z" fill="#000000" stroke="#000000" stroke-width="2"/><path d="M268.53279,107.67873h7.92955l-3.82051,11.58757h-15.35723z" fill="#00adba" stroke="none" stroke-width="0"/><path d="M300.18818,119.2663h-14.4335l-3.82052,-11.58757h7.92955z" fill="#00ffcc" stroke="none" stroke-width="0"/><path d="M279.10728,150.3645l-21.82268,-31.09821h15.36269z" fill="#0092bc" stroke="none" stroke-width="0"/><path d="M285.74921,119.2663h14.43897l-21.0807,31.09821z" fill="#00d0e1" stroke="none" stroke-width="0"/><path d="M276.40905,107.67873h5.5784l3.87948,11.58757h-13.21963z" fill="#00e2cc" stroke="none" stroke-width="0"/><path d="M268.53279,107.67873h7.92955l-3.82051,11.58757h-10.04566z" fill="#00becc" stroke="none" stroke-width="0"/><path d="M295.80034,119.2663h-10.04566l-3.82052,-11.58757h7.92955z" fill="#00f0c0" stroke="none" stroke-width="0"/><path d="M279.10728,150.3645l-16.51658,-31.09821h10.0566z" fill="#009fcc" stroke="none" stroke-width="0"/><path d="M285.74921,119.2663h10.05113l-16.69286,31.09821z" fill="#00bccc" stroke="none" stroke-width="0"/><path d="M279.10728,150.3645l-6.46545,-31.09821h13.2249z" fill="#00afcc" stroke="none" stroke-width="0"/><text transform="translate(209.21922,77.05297) scale(0.41052,0.41052)" font-size="40" xml:space="preserve" fill="#000000" fill-rule="nonzero" stroke="none" stroke-width="1" stroke-linecap="butt" stroke-linejoin="miter" stroke-miterlimit="10" stroke-dasharray="" stroke-dashoffset="0" font-family="Sans Serif" font-weight="normal" text-anchor="start" style="mix-blend-mode: normal"><tspan x="0" dy="0">GRAB THE COLOR</tspan><tspan x="0" dy="46.15px">           GEM!</tspan></text></g></g></svg>