<svg version="1.1" xmlns="http://www.w3.org/2000/svg" xmlns:xlink="http://www.w3.org/1999/xlink" width="1244.83902" height="721.75724" viewBox="0,0,1244.83902,721.75724"><defs><radialGradient cx="425" cy="307.33333" r="48" gradientUnits="userSpaceOnUse" id="color-1"><stop offset="0" stop-color="#e3f3ff"/><stop offset="1" stop-color="#ffffff"/></radialGradient><linearGradient x1="441.69529" y1="306.70052" x2="441.69529" y2="338.55969" gradientUnits="userSpaceOnUse" id="color-2"><stop offset="0" stop-color="#02a0ff"/><stop offset="1" stop-color="#70e6ff"/></linearGradient><linearGradient x1="392.08992" y1="291.51987" x2="455.66007" y2="291.51987" gradientUnits="userSpaceOnUse" id="color-3"><stop offset="0" stop-color="#009eff"/><stop offset="1" stop-color="#7bedff"/></linearGradient></defs><g transform="translate(220.2591,167.23123)"><g data-paper-data="{&quot;isPaintingLayer&quot;:true}" stroke-linejoin="miter" stroke-miterlimit="10" stroke-dasharray="" stroke-dashoffset="0" style="mix-blend-mode: normal"><path d="M160.83996,-139.06427l338.94576,-28.16696l45.47154,547.17948l-338.94576,28.16696z" fill="#84ffdc" fill-rule="nonzero" stroke="none" stroke-width="0" stroke-linecap="butt"/><path d="M214.09875,353.88626l16.15412,-0.17483l-8.20253,14.73357z" data-paper-data="{&quot;origRot&quot;:0,&quot;index&quot;:null}" fill="#1a1a1a" fill-rule="nonzero" stroke="#0e0e0e" stroke-width="3" stroke-linecap="butt"/><path d="M215.65038,354.80847c0,0 4.02055,-0.04319 6.59391,-0.07083c2.47464,-0.02658 -0.22696,11.64192 -0.22696,11.64192z" data-paper-data="{&quot;origRot&quot;:0,&quot;index&quot;:null}" fill="#0e0e0e" fill-rule="nonzero" stroke="none" stroke-width="0" stroke-linecap="butt"/><path d="M248.48654,335.56069c0,0 -0.0484,-4.02049 -0.07937,-6.59381c-0.02978,-2.4746 11.64222,0.21189 11.64222,0.21189z" data-paper-data="{&quot;origRot&quot;:0,&quot;index&quot;:null}" fill="#0e0e0e" fill-rule="nonzero" stroke="none" stroke-width="0" stroke-linecap="butt"/><path d="M197.16111,341.9268l11.29977,11.54553l-16.31416,4.26713z" data-paper-data="{&quot;origRot&quot;:0,&quot;index&quot;:null}" fill="#1a1a1a" fill-rule="nonzero" stroke="#0e0e0e" stroke-width="3" stroke-linecap="butt"/><path d="M197.56782,343.68583c0,0 2.81215,2.87376 4.61207,4.71312c1.73087,1.76879 -8.5648,7.88868 -8.5648,7.88868z" data-paper-data="{&quot;origRot&quot;:0,&quot;index&quot;:null}" fill="#0e0e0e" fill-rule="nonzero" stroke="none" stroke-width="0" stroke-linecap="butt"/><path d="M234.33387,353.23448l11.0105,-11.82169l5.01711,16.09932z" data-paper-data="{&quot;origRot&quot;:0,&quot;index&quot;:null}" fill="#1a1a1a" fill-rule="nonzero" stroke="#0e0e0e" stroke-width="3" stroke-linecap="butt"/><path d="M236.07156,352.74642c0,0 2.74062,-2.94205 4.49475,-4.82512c1.68684,-1.81082 8.27637,8.19077 8.27637,8.19077z" data-paper-data="{&quot;origRot&quot;:0,&quot;index&quot;:null}" fill="#0e0e0e" fill-rule="nonzero" stroke="none" stroke-width="0" stroke-linecap="butt"/><path d="M226.30021,351.85269l16.15412,-0.17483l-8.20253,14.73357z" data-paper-data="{&quot;origRot&quot;:0,&quot;index&quot;:null}" fill="#1a1a1a" fill-rule="nonzero" stroke="#0e0e0e" stroke-width="3" stroke-linecap="butt"/><path d="M227.85184,352.77489c0,0 4.02055,-0.04319 6.59391,-0.07083c2.47464,-0.02658 -0.22696,11.64192 -0.22696,11.64192z" data-paper-data="{&quot;origRot&quot;:0,&quot;index&quot;:null}" fill="#0e0e0e" fill-rule="nonzero" stroke="none" stroke-width="0" stroke-linecap="butt"/><path d="M260.688,333.52711c0,0 -0.0484,-4.02049 -0.07937,-6.59381c-0.02978,-2.4746 11.64222,0.21189 11.64222,0.21189z" data-paper-data="{&quot;origRot&quot;:0,&quot;index&quot;:null}" fill="#0e0e0e" fill-rule="nonzero" stroke="none" stroke-width="0" stroke-linecap="butt"/><path d="M209.36257,339.89322l11.29977,11.54553l-16.31416,4.26713z" data-paper-data="{&quot;origRot&quot;:0,&quot;index&quot;:null}" fill="#1a1a1a" fill-rule="nonzero" stroke="#0e0e0e" stroke-width="3" stroke-linecap="butt"/><path d="M209.76928,341.65225c0,0 2.81215,2.87376 4.61207,4.71312c1.73087,1.76879 -8.5648,7.88868 -8.5648,7.88868z" data-paper-data="{&quot;origRot&quot;:0,&quot;index&quot;:null}" fill="#0e0e0e" fill-rule="nonzero" stroke="none" stroke-width="0" stroke-linecap="butt"/><path d="M246.53532,351.20091l11.0105,-11.82169l5.01711,16.09932z" data-paper-data="{&quot;origRot&quot;:0,&quot;index&quot;:null}" fill="#1a1a1a" fill-rule="nonzero" stroke="#0e0e0e" stroke-width="3" stroke-linecap="butt"/><path d="M248.27302,350.71285c0,0 2.74062,-2.94205 4.49475,-4.82512c1.68684,-1.81082 8.27637,8.19077 8.27637,8.19077z" data-paper-data="{&quot;origRot&quot;:0,&quot;index&quot;:null}" fill="#0e0e0e" fill-rule="nonzero" stroke="none" stroke-width="0" stroke-linecap="butt"/><path d="M-208.69294,551.73185l-11.30231,-193.8771l821.33606,-64.13544l-3.94955,206.07856c0,0 -43.0443,49.96091 -44.56298,50.04946c-4.55607,0.26559 -761.52044,1.88455 -761.52044,1.88455z" data-paper-data="{&quot;origRot&quot;:0}" fill="#000000" fill-rule="nonzero" stroke="#000000" stroke-width="0.5" stroke-linecap="butt"/><path d="M-195.49933,124.35405h735.70514v430.17196h-735.70514z" fill-opacity="0" fill="#000000" fill-rule="evenodd" stroke="none" stroke-width="1" stroke-linecap="square"/><path d="M214.29094,519.19466l-11.30231,-193.8771l821.33606,-64.13544l-3.94955,206.07856c0,0 -43.0443,49.96091 -44.56298,50.04946c-4.55607,0.26559 -761.52044,1.88455 -761.52044,1.88455z" data-paper-data="{&quot;origRot&quot;:0}" fill="#402500" fill-rule="nonzero" stroke="#402500" stroke-width="0.5" stroke-linecap="butt"/><path d="M205.85129,383.97765l-4.13527,-47.55569l443.85308,-38.59591l4.13527,47.55569z" fill="#1b8200" fill-rule="nonzero" stroke="#1b8200" stroke-width="0.5" stroke-linecap="butt"/><path d="M203.34499,360.7647l-4.70934,-37.01724l443.33899,-36.26252l4.70934,37.01724z" fill="#28ff00" fill-rule="nonzero" stroke="#29ff00" stroke-width="0.5" stroke-linecap="butt"/><g fill="#ffffff" fill-rule="nonzero" stroke="none" stroke-width="1" stroke-linecap="butt"><path d="M254.54534,62.21638c5.47032,0 10.42716,2.05086 14.01643,5.36356c3.58926,3.31371 5.81094,7.88926 5.81094,12.93863c0,5.04937 -2.22168,9.62492 -5.81094,12.93863c-3.58926,3.3127 -8.54611,5.36356 -14.01643,5.36356c-5.47032,0 -10.42716,-2.05086 -14.01643,-5.36356c-3.58926,-3.31371 -5.81094,-7.88926 -5.81094,-12.93863c0,-5.04937 2.22168,-9.62492 5.81094,-12.93863c3.58926,-3.3127 8.54611,-5.36356 14.01643,-5.36356z"/><path d="M291.65811,50.0149c5.89127,0 11.22941,1.8231 15.09422,4.76772c3.86582,2.94563 6.25833,7.01278 6.25833,11.50089c0,4.48811 -2.39251,8.55526 -6.25833,11.50089c-3.86481,2.94462 -9.20295,4.76772 -15.09422,4.76772c-5.89127,0 -11.22941,-1.8231 -15.09422,-4.76772c-3.86582,-2.94563 -6.25833,-7.01278 -6.25833,-11.50089c0,-4.48811 2.39251,-8.55526 6.25833,-11.50089c3.86481,-2.94462 9.20295,-4.76772 15.09422,-4.76772z"/><path d="M313.01067,72.38426c5.33,0 10.15975,2.05086 13.65648,5.36356c3.49775,3.31371 5.6625,7.88926 5.6625,12.93863c0,5.04937 -2.16474,9.62492 -5.6625,12.93863c-3.49673,3.3127 -8.32648,5.36356 -13.65648,5.36356c-5.33,0 -10.15975,-2.05086 -13.65648,-5.36356c-3.49775,-3.31371 -5.6625,-7.88926 -5.6625,-12.93863c0,-5.04937 2.16474,-9.62492 5.6625,-12.93863c3.49673,-3.3127 8.32648,-5.36356 13.65648,-5.36356z"/><path d="M280.47343,73.40105c6.45254,0 12.29907,2.33556 16.53196,6.10886c4.23391,3.7733 6.85417,8.98434 6.85417,14.73529c0,5.75096 -2.62026,10.96199 -6.85417,14.73529c-4.23289,3.7733 -10.07942,6.10886 -16.53196,6.10886c-6.45254,0 -12.29907,-2.33556 -16.53196,-6.10886c-4.23391,-3.7733 -6.85417,-8.98434 -6.85417,-14.73529c0,-5.75096 2.62026,-10.96199 6.85417,-14.73529c4.23289,-3.7733 10.07942,-6.10886 16.53196,-6.10886z"/><path d="M249.4614,82.55214c5.75096,0 10.96199,1.8231 14.73529,4.76772c3.7733,2.94563 6.10886,7.01278 6.10886,11.50089c0,4.48811 -2.33556,8.55526 -6.10886,11.50089c-3.7733,2.94462 -8.98434,4.76772 -14.73529,4.76772c-5.75096,0 -10.96199,-1.8231 -14.73529,-4.76772c-3.7733,-2.94563 -6.10886,-7.01278 -6.10886,-11.50089c0,-4.48811 2.33556,-8.55526 6.10886,-11.50089c3.7733,-2.94462 8.98434,-4.76772 14.73529,-4.76772z"/></g><g fill="#ffffff" fill-rule="nonzero" stroke="none" stroke-width="1" stroke-linecap="butt"><path d="M381.766,116.15501c5.47032,0 10.42716,2.05086 14.01643,5.36356c3.58926,3.31371 5.81094,7.88926 5.81094,12.93863c0,5.04937 -2.22168,9.62492 -5.81094,12.93863c-3.58926,3.3127 -8.54611,5.36356 -14.01643,5.36356c-5.47032,0 -10.42716,-2.05086 -14.01643,-5.36356c-3.58926,-3.31371 -5.81094,-7.88926 -5.81094,-12.93863c0,-5.04937 2.22168,-9.62492 5.81094,-12.93863c3.58926,-3.3127 8.54611,-5.36356 14.01643,-5.36356z"/><path d="M418.87878,103.95354c5.89127,0 11.22941,1.8231 15.09422,4.76772c3.86582,2.94563 6.25833,7.01278 6.25833,11.50089c0,4.48811 -2.39251,8.55526 -6.25833,11.50089c-3.86481,2.94462 -9.20295,4.76772 -15.09422,4.76772c-5.89127,0 -11.22941,-1.8231 -15.09422,-4.76772c-3.86582,-2.94563 -6.25833,-7.01278 -6.25833,-11.50089c0,-4.48811 2.39251,-8.55526 6.25833,-11.50089c3.86481,-2.94462 9.20295,-4.76772 15.09422,-4.76772z"/><path d="M440.23132,126.32289c5.33,0 10.15975,2.05086 13.65648,5.36356c3.49775,3.31371 5.6625,7.88926 5.6625,12.93863c0,5.04937 -2.16474,9.62492 -5.6625,12.93863c-3.49673,3.3127 -8.32648,5.36356 -13.65648,5.36356c-5.33,0 -10.15975,-2.05086 -13.65648,-5.36356c-3.49775,-3.31371 -5.6625,-7.88926 -5.6625,-12.93863c0,-5.04937 2.16474,-9.62492 5.6625,-12.93863c3.49673,-3.3127 8.32648,-5.36356 13.65648,-5.36356z"/><path d="M407.6941,127.33967c6.45254,0 12.29907,2.33556 16.53196,6.10886c4.23391,3.7733 6.85417,8.98434 6.85417,14.73529c0,5.75096 -2.62026,10.96199 -6.85417,14.73529c-4.23289,3.7733 -10.07942,6.10886 -16.53196,6.10886c-6.45254,0 -12.29907,-2.33556 -16.53196,-6.10886c-4.23391,-3.7733 -6.85417,-8.98434 -6.85417,-14.73529c0,-5.75096 2.62026,-10.96199 6.85417,-14.73529c4.23289,-3.7733 10.07942,-6.10886 16.53196,-6.10886z"/><path d="M376.68206,136.49077c5.75096,0 10.96199,1.8231 14.73529,4.76772c3.7733,2.94563 6.10886,7.01278 6.10886,11.50089c0,4.48811 -2.33556,8.55526 -6.10886,11.50089c-3.7733,2.94462 -8.98434,4.76772 -14.73529,4.76772c-5.75096,0 -10.96199,-1.8231 -14.73529,-4.76772c-3.7733,-2.94563 -6.10886,-7.01278 -6.10886,-11.50089c0,-4.48811 2.33556,-8.55526 6.10886,-11.50089c3.7733,-2.94462 8.98434,-4.76772 14.73529,-4.76772z"/></g><g fill="#ffffff" fill-rule="nonzero" stroke="none" stroke-width="1" stroke-linecap="butt"><path d="M431.1245,18.94944c5.47032,0 10.42716,2.05086 14.01643,5.36356c3.58926,3.31371 5.81094,7.88926 5.81094,12.93863c0,5.04937 -2.22168,9.62492 -5.81094,12.93863c-3.58926,3.3127 -8.54611,5.36356 -14.01643,5.36356c-5.47032,0 -10.42716,-2.05086 -14.01643,-5.36356c-3.58926,-3.31371 -5.81094,-7.88926 -5.81094,-12.93863c0,-5.04937 2.22168,-9.62492 5.81094,-12.93863c3.58926,-3.3127 8.54611,-5.36356 14.01643,-5.36356z"/><path d="M468.23727,6.74798c5.89127,0 11.22941,1.8231 15.09422,4.76772c3.86582,2.94563 6.25833,7.01278 6.25833,11.50089c0,4.48811 -2.39251,8.55526 -6.25833,11.50089c-3.86481,2.94462 -9.20295,4.76772 -15.09422,4.76772c-5.89127,0 -11.22941,-1.8231 -15.09422,-4.76772c-3.86582,-2.94563 -6.25833,-7.01278 -6.25833,-11.50089c0,-4.48811 2.39251,-8.55526 6.25833,-11.50089c3.86481,-2.94462 9.20295,-4.76772 15.09422,-4.76772z"/><path d="M489.58983,29.11732c5.33,0 10.15975,2.05086 13.65648,5.36356c3.49775,3.31371 5.6625,7.88926 5.6625,12.93863c0,5.04937 -2.16474,9.62492 -5.6625,12.93863c-3.49673,3.3127 -8.32648,5.36356 -13.65648,5.36356c-5.33,0 -10.15975,-2.05086 -13.65648,-5.36356c-3.49775,-3.31371 -5.6625,-7.88926 -5.6625,-12.93863c0,-5.04937 2.16474,-9.62492 5.6625,-12.93863c3.49673,-3.3127 8.32648,-5.36356 13.65648,-5.36356z"/><path d="M457.0526,30.13411c6.45254,0 12.29907,2.33556 16.53196,6.10886c4.23391,3.7733 6.85417,8.98434 6.85417,14.73529c0,5.75096 -2.62026,10.96199 -6.85417,14.73529c-4.23289,3.7733 -10.07942,6.10886 -16.53196,6.10886c-6.45254,0 -12.29907,-2.33556 -16.53196,-6.10886c-4.23391,-3.7733 -6.85417,-8.98434 -6.85417,-14.73529c0,-5.75096 2.62026,-10.96199 6.85417,-14.73529c4.23289,-3.7733 10.07942,-6.10886 16.53196,-6.10886z"/><path d="M426.04056,39.2852c5.75096,0 10.96199,1.8231 14.73529,4.76772c3.7733,2.94563 6.10886,7.01278 6.10886,11.50089c0,4.48811 -2.33556,8.55526 -6.10886,11.50089c-3.7733,2.94462 -8.98434,4.76772 -14.73529,4.76772c-5.75096,0 -10.96199,-1.8231 -14.73529,-4.76772c-3.7733,-2.94563 -6.10886,-7.01278 -6.10886,-11.50089c0,-4.48811 2.33556,-8.55526 6.10886,-11.50089c3.7733,-2.94462 8.98434,-4.76772 14.73529,-4.76772z"/></g><text transform="translate(39.32671,168.27225) scale(1.03769,1.03769)" font-size="40" xml:space="preserve" fill="#000000" fill-rule="nonzero" stroke="none" stroke-width="1" stroke-linecap="butt" stroke-linejoin="miter" stroke-miterlimit="10" stroke-dasharray="" stroke-dashoffset="0" font-family="Sans Serif" font-weight="normal" text-anchor="start" style="mix-blend-mode: normal"><tspan x="0" dy="0">COLOR</tspan></text><text transform="translate(190.4709,171.46364) scale(1.12991,1.12991)" font-size="40" xml:space="preserve" fill="#ffffff" fill-rule="nonzero" stroke="none" stroke-width="1" stroke-linecap="butt" stroke-linejoin="miter" stroke-miterlimit="10" stroke-dasharray="" stroke-dashoffset="0" font-family="Sans Serif" font-weight="normal" text-anchor="start" style="mix-blend-mode: normal"><tspan x="0" dy="0">LESS</tspan></text><text transform="translate(190.21433,213.82693) scale(0.65726,0.65726)" font-size="40" xml:space="preserve" fill="#ffffff" fill-rule="nonzero" stroke="none" stroke-width="1" stroke-linecap="butt" stroke-linejoin="miter" stroke-miterlimit="10" stroke-dasharray="" stroke-dashoffset="0" font-family="Sans Serif" font-weight="normal" text-anchor="start" style="mix-blend-mode: normal"><tspan x="0" dy="0">SCROLLING </tspan><tspan x="0" dy="46.150000000000006px">          PLATFORMER</tspan></text><text transform="translate(160.45215,218.15144) scale(0.81088,0.81088)" font-size="40" xml:space="preserve" fill="#000000" fill-rule="nonzero" stroke="none" stroke-width="1" stroke-linecap="butt" stroke-linejoin="miter" stroke-miterlimit="10" stroke-dasharray="" stroke-dashoffset="0" font-family="Sans Serif" font-weight="normal" text-anchor="start" style="mix-blend-mode: normal"><tspan x="0" dy="0">A</tspan></text><g fill-rule="nonzero"><path d="M204.56232,289.73311c0.9518,4.06903 -0.23477,7.82635 -2.64887,8.39105l-37.49555,8.77076c-2.4146,0.56482 -5.14385,-2.27744 -6.09545,-6.34562l-7.50369,-32.07874c-0.9518,-4.06903 0.23395,-7.82526 2.64856,-8.39007l37.49504,-8.77065c2.41563,-0.56505 5.14395,2.2756 6.09577,6.34463l7.50369,32.07874z" data-paper-data="{&quot;origRot&quot;:0}" fill="#000000" stroke="#000000" stroke-width="5" stroke-linecap="butt"/><path d="M196.64898,259.76596c1.23872,5.29561 -8.10805,12.00976 -20.87661,14.99652c-12.76855,2.98675 -24.12368,1.11507 -25.3624,-4.18054c-1.23872,-5.29561 8.10805,-12.00976 20.87661,-14.99652c12.76855,-2.98675 24.12368,-1.11507 25.3624,4.18054z" data-paper-data="{&quot;origRot&quot;:0}" fill="#000000" stroke="none" stroke-width="5" stroke-linecap="butt"/><path d="M181.00561,265.34867l4.58012,21.37393" fill="none" stroke="#ffffff" stroke-width="6.5" stroke-linecap="round"/><path d="M191.78356,262.50166l4.58012,21.37393" fill="none" stroke="#ffffff" stroke-width="6.5" stroke-linecap="round"/></g><g fill-rule="nonzero" stroke-width="0" stroke-linecap="butt"><path d="M397.64488,260h54.71025c7.85507,0 14.65854,4.28298 18.14966,10.61957c1.59202,2.8896 2.49522,6.20627 2.49522,9.73857c0,0 0,11.22522 0,18.34474c0,6.2399 0,18.72047 0,27.12003c0,4.95204 0,8.48561 0,8.48561c0,1.47662 -0.15783,2.91555 -0.45785,4.30135c-1.99143,9.19886 -10.24732,16.05679 -20.18703,16.05679h-54.71025c-11.43712,0 -20.64488,-9.07986 -20.64488,-20.35814v-53.95039c0,-11.27828 9.20775,-20.35814 20.64488,-20.35814z" fill="url(#color-1)" stroke="#000000"/><path d="M418.60286,341.07073l-0.2964,-37.99718l15.70935,14.90659v10.81458z" fill="#bbbbbb" stroke="none"/><path d="M418.89763,298.0777l-0.09515,-7.57806l-16.10649,-0.14993l-8.35607,-15.17609l63.57015,0.55516l-8.7711,14.53129l-15.32295,0.03572l0.09907,22.00784z" data-paper-data="{&quot;index&quot;:null}" fill="#bbbbbb" stroke="none"/><path d="M416.35286,338.85198l-0.2964,-37.99718l15.70935,14.90659v10.81458z" fill="url(#color-2)" stroke="none"/><path d="M416.64763,295.85895l-0.09515,-7.57806l-16.10649,-0.14993l-8.35607,-15.17609l63.57015,0.55516l-8.7711,14.53129l-15.32295,0.03572l0.09907,22.00784z" data-paper-data="{&quot;index&quot;:null}" fill="url(#color-3)" stroke="none"/></g></g></g></svg>