<svg version="1.1" xmlns="http://www.w3.org/2000/svg" xmlns:xlink="http://www.w3.org/1999/xlink" width="437.01589" height="264.91364" viewBox="0,0,437.01589,264.91364"><g transform="translate(1,-103.4452)"><g data-paper-data="{&quot;isPaintingLayer&quot;:true}" fill-rule="nonzero" stroke-linejoin="miter" stroke-miterlimit="10" stroke-dasharray="" stroke-dashoffset="0" style="mix-blend-mode: normal"><path d="M-1,359.01045v-69h269.06944v69z" data-paper-data="{&quot;origPos&quot;:null}" fill="#000000" stroke="#000000" stroke-width="0" stroke-linecap="butt"/><path d="M-1,292.01043v-14h269.06944v14z" data-paper-data="{&quot;origPos&quot;:null}" fill="#000000" stroke="#000000" stroke-width="0" stroke-linecap="butt"/><path d="M-1,278.01043v-14h269.06944v14z" data-paper-data="{&quot;origPos&quot;:null}" fill="#000000" stroke="#000000" stroke-width="0" stroke-linecap="butt"/><path d="M-1,264.01043v-14h269.06944v14z" data-paper-data="{&quot;origPos&quot;:null}" fill="#000000" stroke="#000000" stroke-width="0" stroke-linecap="butt"/><path d="M50.06941,259.01038v62" data-paper-data="{&quot;origPos&quot;:null}" fill="none" stroke="#000000" stroke-width="15" stroke-linecap="round"/><path d="M60.06941,262.01038v14" fill="none" stroke="#000000" stroke-width="15" stroke-linecap="round"/><path d="M73.06941,299.01038v-37" fill="none" stroke="#000000" stroke-width="15" stroke-linecap="round"/><path d="M86.06941,261.01038v16" fill="#000000" stroke="#000000" stroke-width="15" stroke-linecap="round"/><path d="M143.06941,325.01038c0,11.59798 -8.50659,21 -19,21c-10.49341,0 -19,-9.40202 -19,-21c0,-11.59798 8.50659,-21 19,-21c10.49341,0 19,9.40202 19,21z" data-paper-data="{&quot;origPos&quot;:null}" fill="#000000" stroke="#000000" stroke-width="0" stroke-linecap="butt"/><path d="M223.56941,332.01038c-14.63555,0 -26.5,-7.3873 -26.5,-16.5c0,-9.1127 11.86445,-16.5 26.5,-16.5c14.63555,0 26.5,7.3873 26.5,16.5c0,9.1127 -11.86445,16.5 -26.5,16.5z" data-paper-data="{&quot;origPos&quot;:null}" fill="#000000" stroke="#000000" stroke-width="0" stroke-linecap="butt"/><path d="M399.97985,366.04736v-141.14114h36.03604v141.14114z" fill="#000000" stroke="none" stroke-width="NaN" stroke-linecap="butt"/><path d="M2.1781,348.81829v-96.0961h259.75976v96.0961z" fill="#000000" stroke="#000000" stroke-width="2" stroke-linecap="butt"/><path d="M402.12404,367.35883v-139.63964h31.53153v139.63964z" fill="#000000" stroke="#000000" stroke-width="2" stroke-linecap="butt"/><text transform="translate(2.01201,125.1952) scale(0.5,0.5)" font-size="40" xml:space="preserve" fill="#000000" fill-rule="nonzero" stroke="none" stroke-width="1" stroke-linecap="butt" stroke-linejoin="miter" stroke-miterlimit="10" stroke-dasharray="" stroke-dashoffset="0" font-family="Sans Serif" font-weight="normal" text-anchor="start" style="mix-blend-mode: normal"><tspan x="0" dy="0">We need to restore the color!</tspan></text></g></g></svg>