<svg version="1.1" xmlns="http://www.w3.org/2000/svg" xmlns:xlink="http://www.w3.org/1999/xlink" width="527.03913" height="432.84985" viewBox="0,0,527.03913,432.84985"><g transform="translate(21.48862,-124.91332)"><g data-paper-data="{&quot;isPaintingLayer&quot;:true}" fill-rule="nonzero" stroke-linejoin="miter" stroke-miterlimit="10" stroke-dasharray="" stroke-dashoffset="0" style="mix-blend-mode: normal"><path d="M1.02476,360.01051v-69h475.54468v69z" data-paper-data="{&quot;origPos&quot;:null}" fill="#000000" stroke="#000000" stroke-width="0" stroke-linecap="butt"/><path d="M1.02476,292.01045v-14h475.54468v14z" data-paper-data="{&quot;origPos&quot;:null}" fill="#000000" stroke="#000000" stroke-width="0" stroke-linecap="butt"/><path d="M4.02776,278.01045v-14h475.54468v14z" data-paper-data="{&quot;origPos&quot;:null}" fill="#000000" stroke="#000000" stroke-width="0" stroke-linecap="butt"/><path d="M1.02476,264.01045v-14h475.54468v14z" data-paper-data="{&quot;origPos&quot;:null}" fill="#000000" stroke="#000000" stroke-width="0" stroke-linecap="butt"/><path d="M15.06941,292.01041v-34" data-paper-data="{&quot;origPos&quot;:null}" fill="none" stroke="#000000" stroke-width="15" stroke-linecap="round"/><path d="M25.06941,286.01041v-25" fill="none" stroke="#000000" stroke-width="15" stroke-linecap="round"/><path d="M38.06941,259.01041v45" fill="none" stroke="#000000" stroke-width="15" stroke-linecap="round"/><path d="M142.06941,261.01041v28" fill="#000000" stroke="#000000" stroke-width="15" stroke-linecap="round"/><path d="M153.06941,265.01041v22" fill="#000000" stroke="#000000" stroke-width="15" stroke-linecap="round"/><path d="M166.06941,260.01041v45" fill="#000000" stroke="#000000" stroke-width="15" stroke-linecap="round"/><path d="M259.06941,262.01041v20" fill="#000000" stroke="#000000" stroke-width="15" stroke-linecap="round"/><path d="M270.06941,275.01041v-9" fill="#000000" stroke="#000000" stroke-width="15" stroke-linecap="round"/><path d="M282.06941,261.01041v36" fill="#000000" stroke="#000000" stroke-width="15" stroke-linecap="round"/><path d="M289.06941,280.01041v-10" fill="#000000" stroke="#000000" stroke-width="15" stroke-linecap="round"/><path d="M356.06941,290.01041v-32" fill="#000000" stroke="#000000" stroke-width="15" stroke-linecap="round"/><path d="M105.06941,333.51041c0,9.1127 -8.05887,16.5 -18,16.5c-9.94113,0 -18,-7.3873 -18,-16.5c0,-9.1127 8.05887,-16.5 18,-16.5c9.94113,0 18,7.3873 18,16.5z" data-paper-data="{&quot;origPos&quot;:null}" fill="#000000" stroke="#000000" stroke-width="0" stroke-linecap="butt"/><path d="M225.06941,335.01041c0,-8.28427 6.71573,-15 15,-15c8.28427,0 15,6.71573 15,15c0,8.28427 -6.71573,15 -15,15c-8.28427,0 -15,-6.71573 -15,-15z" fill="#000000" stroke="#000000" stroke-width="0" stroke-linecap="butt"/><path d="M338.06941,332.51041c0,-12.97869 10.52131,-23.5 23.5,-23.5c12.97869,0 23.5,10.52131 23.5,23.5c0,12.97869 -10.52131,23.5 -23.5,23.5c-12.97869,0 -23.5,-10.52131 -23.5,-23.5z" data-paper-data="{&quot;origPos&quot;:null}" fill="#000000" stroke="#000000" stroke-width="0" stroke-linecap="butt"/><path d="M74.60747,313.47078v-13.51351h67.56757v13.51351z" fill="#000000" stroke="none" stroke-width="0" stroke-linecap="butt"/><path d="M40.07294,319.47679v-12.01201h84.08408v12.01201z" fill="#000000" stroke="none" stroke-width="0" stroke-linecap="butt"/><path d="M-21.48862,358.51583v-108.10811h373.87387v108.10811z" fill="#000000" stroke="none" stroke-width="0" stroke-linecap="butt"/><path d="M139.04398,557.76317v-349.84985h79.57958v349.84985z" fill="#000000" stroke="none" stroke-width="NaN" stroke-linecap="butt"/><path d="M452.99796,373.44064v-124.21512h30.03003v124.21512z" fill="#000000" stroke="none" stroke-width="0" stroke-linecap="butt"/><path d="M-18.47351,362.93012v-109.60961h524.02402v109.60961z" data-paper-data="{&quot;origPos&quot;:null}" fill="#000000" stroke="none" stroke-width="0" stroke-linecap="butt"/><path d="M291.04397,474.76317v-349.84985h79.57958v349.84985z" fill="#000000" stroke="none" stroke-width="NaN" stroke-linecap="butt"/></g></g></svg>