<svg version="1.1" xmlns="http://www.w3.org/2000/svg" xmlns:xlink="http://www.w3.org/1999/xlink" width="518.01802" height="428.80982" viewBox="0,0,518.01802,428.80982"><g transform="translate(30.98102,-0.37181)"><g data-paper-data="{&quot;isPaintingLayer&quot;:true}" fill="#000000" fill-rule="nonzero" stroke="none" stroke-width="0" stroke-linecap="butt" stroke-linejoin="miter" stroke-miterlimit="10" stroke-dasharray="" stroke-dashoffset="0" style="mix-blend-mode: normal"><path d="M-4.42905,416.24839v-121.00001h481.43059v121.00001z"/><path d="M-5.04465,307.26054v-14h478.75167v14z"/><path d="M-5.04465,293.26054v-14h478.75167v14z"/><path d="M-5.04465,279.26052v-14h478.75167v14z"/><path d="M10.97936,264.97552v-185.51963h94.98314v185.51963z"/><path d="M11.10472,145.38458v-21.46508h92.36553v21.46508z"/><path d="M11.10472,123.9195v-21.46508h92.36553v21.46508z"/><path d="M11.10472,102.45439v-21.46508h92.36553v21.46508z"/><g><path d="M78.9302,377.91544c-14.55878,0 -26.36109,-11.80189 -26.36109,-26.36067c0,-14.55877 11.80231,-26.36109 26.36109,-26.36109c14.55878,0 26.36109,11.80232 26.36109,26.36109c0,14.55878 -11.80231,26.36067 -26.36109,26.36067z" data-paper-data="{&quot;origPos&quot;:null}"/><path d="M43.63362,377.91544v-52.72187h36.33934v52.72187z" data-paper-data="{&quot;origPos&quot;:null}"/><path d="M44.97352,377.91544c-14.55877,0 -26.36077,-11.80211 -26.36077,-26.36088c0,-14.55877 11.80199,-26.36109 26.36077,-26.36109c14.55868,0 26.36099,11.80232 26.36099,26.36109c0,14.55888 -11.80222,26.36088 -26.36099,26.36088z" data-paper-data="{&quot;origPos&quot;:null}"/></g><g data-paper-data="{&quot;origPos&quot;:null}"><path d="M445.9302,355.16544c-14.55878,0 -26.36109,-11.80189 -26.36109,-26.36067c0,-14.55877 11.80231,-26.36109 26.36109,-26.36109c14.55878,0 26.36109,11.80232 26.36109,26.36109c0,14.55878 -11.80231,26.36067 -26.36109,26.36067z" data-paper-data="{&quot;origPos&quot;:null}"/><path d="M410.63362,355.16544v-52.72187h36.33934v52.72187z" data-paper-data="{&quot;origPos&quot;:null}"/><path d="M411.97352,355.16544c-14.55877,0 -26.36077,-11.80211 -26.36077,-26.36088c0,-14.55877 11.80199,-26.36109 26.36077,-26.36109c14.55868,0 26.36099,11.80232 26.36099,26.36109c0,14.55888 -11.80222,26.36088 -26.36099,26.36088z" data-paper-data="{&quot;origPos&quot;:null}"/></g><g data-paper-data="{&quot;origPos&quot;:null}"><path d="M312.22621,304.8565c0,14.94118 -12.11219,27.0534 -27.0534,27.0534c-14.94118,0 -27.05353,-12.11221 -27.05353,-27.0534c0,-14.94118 12.11237,-27.05309 27.05353,-27.05309c14.94118,0 27.0534,12.1119 27.0534,27.05309z" data-paper-data="{&quot;origPos&quot;:null}"/><path d="M286.24277,277.80351v54.1065h-37.29391v-54.1065z" data-paper-data="{&quot;origPos&quot;:null}"/><path d="M277.37768,304.85661c0,14.94118 -12.11219,27.0534 -27.05339,27.0534c-14.94118,0 -27.05309,-12.11221 -27.05309,-27.0534c0,-14.94118 12.1119,-27.05309 27.05309,-27.05309c14.94118,0 27.05339,12.1119 27.05339,27.05309z" data-paper-data="{&quot;origPos&quot;:null}"/></g><g data-paper-data="{&quot;origPos&quot;:null}"><path d="M387.12447,280.3566c0,8.0376 -6.51574,14.55335 -14.55335,14.55335c-8.0376,0 -14.55342,-6.51575 -14.55342,-14.55335c0,-8.0376 6.51584,-14.55319 14.55342,-14.55319c8.0376,0 14.55335,6.51559 14.55335,14.55319z" data-paper-data="{&quot;origPos&quot;:null}"/><path d="M373.1467,265.80346v29.10655h-20.06223v-29.10655z" data-paper-data="{&quot;origPos&quot;:null}"/><path d="M368.37774,280.35666c0,8.0376 -6.51574,14.55335 -14.55335,14.55335c-8.0376,0 -14.55319,-6.51575 -14.55319,-14.55335c0,-8.0376 6.51559,-14.55319 14.55319,-14.55319c8.0376,0 14.55335,6.51559 14.55335,14.55319z" data-paper-data="{&quot;origPos&quot;:null}"/></g><path d="M-30.98102,429.18163v-180.18018h518.01802v180.18018z"/><path d="M220.18356,275.98153v-275.60972h94.98314v275.60972z"/><path d="M220.30892,98.31609v-31.88872h92.36553v31.88872z"/><path d="M220.30892,66.42737v-31.88873h92.36553v31.88873z"/><path d="M220.30892,34.5386v-31.88873h92.36553v31.88873z"/></g></g></svg>