<svg version="1.1" xmlns="http://www.w3.org/2000/svg" xmlns:xlink="http://www.w3.org/1999/xlink" width="346.13218" height="331.9839" viewBox="0,0,346.13218,331.9839"><g transform="translate(-66.93391,-14.00805)"><g data-paper-data="{&quot;isPaintingLayer&quot;:true}" fill-rule="nonzero" stroke-linejoin="miter" stroke-miterlimit="10" stroke-dasharray="" stroke-dashoffset="0" style="mix-blend-mode: normal"><path d="M127.88409,14.99146c16.81554,0 32.05419,6.82866 43.08786,17.86231c11.03366,11.03366 17.86231,26.27231 17.86231,43.08786c0,16.81554 -6.82866,32.05419 -17.86231,43.08786c-11.03366,11.03366 -26.27231,17.86231 -43.08786,17.86231c-16.81554,0 -32.05419,-6.82866 -43.08786,-17.86231c-11.03366,-11.03366 -17.86231,-26.27231 -17.86231,-43.08786c0,-16.81554 6.82866,-32.05419 17.86231,-43.08786c11.03366,-11.03366 26.27231,-17.86231 43.08786,-17.86231z" data-paper-data="{&quot;origPos&quot;:null}" fill="#000000" stroke="none" stroke-width="2" stroke-linecap="butt"/><path d="M127.88409,222.4814c16.81554,0 32.05419,6.82866 43.08784,17.86232c11.03366,11.03365 17.86232,26.27231 17.86232,43.08784c0,16.81554 -6.82866,32.05419 -17.86232,43.08786c-11.03366,11.03365 -26.27231,17.86231 -43.08784,17.86231c-16.81554,0 -32.05419,-6.82866 -43.08786,-17.86231c-11.03366,-11.03366 -17.86232,-26.27232 -17.86232,-43.08786c0,-16.81554 6.82866,-32.05419 17.86232,-43.08784c11.03366,-11.03366 26.27232,-17.86232 43.08786,-17.86232z" data-paper-data="{&quot;origPos&quot;:null}" fill="#000000" stroke="none" stroke-width="2" stroke-linecap="butt"/><path d="M350.93577,14.99146c16.81554,0 32.05419,6.82866 43.08784,17.86231c11.03366,11.03366 17.86232,26.27232 17.86232,43.08786c0,16.81554 -6.82866,32.05419 -17.86232,43.08784c-11.03366,11.03366 -26.27231,17.86231 -43.08784,17.86231c-16.81554,0 -32.05419,-6.82866 -43.08786,-17.86231c-11.03365,-11.03366 -17.86231,-26.27231 -17.86231,-43.08784c0,-16.81554 6.82866,-32.05419 17.86231,-43.08786c11.03366,-11.03365 26.27232,-17.86231 43.08786,-17.86231z" data-paper-data="{&quot;origPos&quot;:null}" fill="#000000" stroke="none" stroke-width="2" stroke-linecap="butt"/><path d="M350.93577,222.4814c16.81554,0 32.05419,6.82866 43.08784,17.86232c11.03366,11.03366 17.86232,26.27231 17.86232,43.08784c0,16.81554 -6.82866,32.05419 -17.86232,43.08786c-11.03366,11.03365 -26.27231,17.86231 -43.08784,17.86231c-16.81554,0 -32.05419,-6.82866 -43.08786,-17.86231c-11.03365,-11.03365 -17.86231,-26.27232 -17.86231,-43.08786c0,-16.81554 6.82866,-32.05419 17.86231,-43.08784c11.03366,-11.03366 26.27232,-17.86232 43.08786,-17.86232z" data-paper-data="{&quot;origPos&quot;:null}" fill="#000000" stroke="none" stroke-width="2" stroke-linecap="butt"/><path d="M67.59534,294.11947v-227.20148h345.47075v227.20148z" data-paper-data="{&quot;origPos&quot;:null}" fill="#000000" stroke="none" stroke-width="0" stroke-linecap="butt"/><path d="M124.65507,345.99195v-331.9839h225.12658v331.9839z" data-paper-data="{&quot;origPos&quot;:null}" fill="#000000" stroke="none" stroke-width="0" stroke-linecap="butt"/><g fill="#000000" stroke="none" stroke-width="0" stroke-linecap="butt"><path d="M378.20641,79.20495c0,12.60194 -10.45912,22.81782 -23.3611,22.81782c-12.90198,0 -23.3611,-10.21588 -23.3611,-22.81782c0,-12.60194 10.45912,-22.81782 23.3611,-22.81782c12.90198,0 23.3611,10.21588 23.3611,22.81782z" data-paper-data="{&quot;origPos&quot;:null}"/><path d="M331.48421,184.60154v-107.56971h46.7222v107.56971z" data-paper-data="{&quot;origPos&quot;:null}"/><path d="M378.20643,182.42841c0,12.60194 -10.45912,22.81782 -23.3611,22.81782c-12.90198,0 -23.3611,-10.21588 -23.3611,-22.81782c0,-12.60194 10.45912,-22.81782 23.3611,-22.81782c12.90198,0 23.3611,10.21588 23.3611,22.81782z" data-paper-data="{&quot;origPos&quot;:null}"/><g data-paper-data="{&quot;origPos&quot;:null}"><path d="M269.55014,79.20495c0,12.60194 -10.45912,22.81782 -23.3611,22.81782c-12.90198,0 -23.3611,-10.21588 -23.3611,-22.81782c0,-12.60194 10.45912,-22.81782 23.3611,-22.81782c12.90198,0 23.3611,10.21588 23.3611,22.81782z" data-paper-data="{&quot;origPos&quot;:null}"/><path d="M222.82794,184.60154v-107.56971h46.7222v107.56971z" data-paper-data="{&quot;origPos&quot;:null}"/><path d="M269.55014,182.42841c0,12.60194 -10.45912,22.81782 -23.3611,22.81782c-12.90198,0 -23.3611,-10.21588 -23.3611,-22.81782c0,-12.60194 10.45912,-22.81782 23.3611,-22.81782c12.90198,0 23.3611,10.21588 23.3611,22.81782z" data-paper-data="{&quot;origPos&quot;:null}"/></g></g><path d="M240.09222,90.3724c0,-6.23429 5.05389,-11.28818 11.28818,-11.28818c6.23429,0 11.28818,5.05389 11.28818,11.28818c0,6.23429 -5.05389,11.28818 -11.28818,11.28818c-6.23429,0 -11.28818,-5.05389 -11.28818,-11.28818z" fill="#000000" stroke="none" stroke-width="0" stroke-linecap="butt"/><path d="M351.64599,90.3724c0,-6.23429 5.05389,-11.28818 11.28818,-11.28818c6.23429,0 11.28818,5.05389 11.28818,11.28818c0,6.23429 -5.05389,11.28818 -11.28818,11.28818c-6.23429,0 -11.28818,-5.05389 -11.28818,-11.28818z" data-paper-data="{&quot;origPos&quot;:null}" fill="#000000" stroke="none" stroke-width="0" stroke-linecap="butt"/><path d="M316.5,88.5l1,124" fill="none" stroke="#ffffff" stroke-width="25" stroke-linecap="round"/><path d="M369.5,89.5l2,123" fill="none" stroke="#ffffff" stroke-width="25" stroke-linecap="round"/></g></g></svg>